<?xml version="1.0" encoding="utf-8"?>
<!-- Generator: Adobe Illustrator 22.0.1, SVG Export Plug-In . SVG Version: 6.00 Build 0)  -->
<svg version="1.1" id="Layer_1" xmlns="http://www.w3.org/2000/svg" xmlns:xlink="http://www.w3.org/1999/xlink" x="0px" y="0px"
	 viewBox="0 0 631.6 476.2" style="enable-background:new 0 0 631.6 476.2;" xml:space="preserve">
<style type="text/css">
	.st0{fill:none;stroke:#FF0000;stroke-width:1.000000e-03;}
</style>
<g transform="translate(22.5000185, 22.5000185) ">
	<polygon class="st0" points="-4.5,-4.5 32,-4.5 32,4 68.5,4 68.5,-4.5 105,-4.5 105,4 141.5,4 141.5,-4.5 178.1,-4.5 178.1,39.4 
		169.5,39.4 169.5,83.4 178.1,83.4 178.1,117.4 169.5,117.4 169.5,161.3 178.1,161.3 178.1,205.3 141.5,205.3 141.5,196.8 
		105,196.8 105,205.3 68.5,205.3 68.5,196.8 32,196.8 32,205.3 -4.5,205.3 -4.5,161.3 4,161.3 4,117.4 -4.5,117.4 -4.5,83.4 4,83.4 
		4,39.4 -4.5,39.4 	"/>
	<circle class="st0" cx="44.1" cy="60" r="9.9"/>
	<circle class="st0" cx="44.1" cy="60" r="9.9"/>
	<rect x="9.7" y="94.7" class="st0" width="62.4" height="28.3"/>
	<rect x="29.5" y="148.6" class="st0" width="42.5" height="42.5"/>
</g>
<g transform="translate(250.6891825, 22.5000185) ">
	<polygon class="st0" points="-50.1,-4.5 -13.6,-4.5 -13.6,4 22.9,4 22.9,-4.5 59.4,-4.5 59.4,4 95.9,4 95.9,-4.5 132.4,-4.5 
		132.4,39.4 123.9,39.4 123.9,83.4 132.4,83.4 132.4,117.4 123.9,117.4 123.9,161.3 132.4,161.3 132.4,205.3 95.9,205.3 95.9,196.8 
		59.4,196.8 59.4,205.3 22.9,205.3 22.9,196.8 -13.6,196.8 -13.6,205.3 -50.1,205.3 -50.1,161.3 -41.6,161.3 -41.6,117.4 
		-50.1,117.4 -50.1,83.4 -41.6,83.4 -41.6,39.4 -50.1,39.4 	"/>
	<circle class="st0" cx="20.7" cy="52.2" r="8.5"/>
	<circle class="st0" cx="63.2" cy="52.2" r="8.5"/>
</g>
<g transform="translate(478.8783465, 22.5000185) ">
	<polygon class="st0" points="-87.3,-4.5 -46.7,-4.5 -46.7,4 2.4,4 2.4,-4.5 36.5,-4.5 36.5,4 85.6,4 85.6,-4.5 126.2,-4.5 
		126.2,39.4 134.7,39.4 134.7,83.4 126.2,83.4 126.2,117.4 134.7,117.4 134.7,161.3 126.2,161.3 126.2,205.3 85.6,205.3 85.6,196.8 
		36.5,196.8 36.5,205.3 2.4,205.3 2.4,196.8 -46.7,196.8 -46.7,205.3 -87.3,205.3 -87.3,161.3 -95.8,161.3 -95.8,117.4 -87.3,117.4 
		-87.3,83.4 -95.8,83.4 -95.8,39.4 -87.3,39.4 	"/>
	<circle class="st0" cx="-53.3" cy="66.4" r="11.3"/>
	<circle class="st0" cx="-10.7" cy="66.4" r="11.3"/>
	<circle class="st0" cx="31.8" cy="66.4" r="11.3"/>
	<circle class="st0" cx="74.3" cy="66.4" r="11.3"/>
</g>
<g transform="translate(478.8783465, 284.7049585) ">
	<polygon class="st0" points="-87.3,-56.9 -46.7,-56.9 -46.7,-48.4 2.4,-48.4 2.4,-56.9 36.5,-56.9 36.5,-48.4 85.6,-48.4 
		85.6,-56.9 126.2,-56.9 126.2,-13 134.7,-13 134.7,30.9 126.2,30.9 126.2,64.9 134.7,64.9 134.7,108.9 126.2,108.9 126.2,152.8 
		85.6,152.8 85.6,144.3 36.5,144.3 36.5,152.8 2.4,152.8 2.4,144.3 -46.7,144.3 -46.7,152.8 -87.3,152.8 -87.3,108.9 -95.8,108.9 
		-95.8,64.9 -87.3,64.9 -87.3,30.9 -95.8,30.9 -95.8,-13 -87.3,-13 	"/>
	<circle class="st0" cx="-53.3" cy="-14.4" r="18.4"/>
	<circle class="st0" cx="-10.7" cy="13.9" r="18.4"/>
	<circle class="st0" cx="31.8" cy="-14.4" r="18.4"/>
	<circle class="st0" cx="74.3" cy="13.9" r="18.4"/>
</g>
<g transform="translate(22.5000185, 284.7049585) ">
	<polygon class="st0" points="4,-48.4 32,-48.4 32,-56.9 68.5,-56.9 68.5,-48.4 105,-48.4 105,-56.9 141.5,-56.9 141.5,-48.4 
		169.5,-48.4 169.5,-7.8 178.1,-7.8 178.1,41.3 169.5,41.3 169.5,75.3 178.1,75.3 178.1,124.4 169.5,124.4 169.5,165 141.5,165 
		141.5,173.5 105,173.5 105,165 68.5,165 68.5,173.5 32,173.5 32,165 4,165 4,124.4 -4.5,124.4 -4.5,75.3 4,75.3 4,41.3 -4.5,41.3 
		-4.5,-7.8 4,-7.8 	"/>
</g>
<g transform="translate(250.6891825, 284.7049585) ">
	<polygon class="st0" points="-41.6,-48.4 -13.6,-48.4 -13.6,-56.9 22.9,-56.9 22.9,-48.4 59.4,-48.4 59.4,-56.9 95.9,-56.9 
		95.9,-48.4 123.9,-48.4 123.9,-7.8 132.4,-7.8 132.4,41.3 123.9,41.3 123.9,75.3 132.4,75.3 132.4,124.4 123.9,124.4 123.9,165 
		95.9,165 95.9,173.5 59.4,173.5 59.4,165 22.9,165 22.9,173.5 -13.6,173.5 -13.6,165 -41.6,165 -41.6,124.4 -50.1,124.4 
		-50.1,75.3 -41.6,75.3 -41.6,41.3 -50.1,41.3 -50.1,-7.8 -41.6,-7.8 	"/>
</g>
</svg>
