<svg xmlns="http://www.w3.org/2000/svg" version="1.1" width="222.8mm" height="168mm" viewBox = " 0 0 789.449468 595.27608" >
<!-- Front--> 
<g transform="translate(22.5000185, 22.5000185) " > 
<polygon style="stroke:#ff0000; fill:none; stroke-width:0.090000074" points="0, 0 45.637832800000005, 0 45.637832800000005, 10.62993 91.27566560000001, 10.62993 91.27566560000001, 0 136.9134984, 0 136.9134984, 10.62993 182.55133120000002, 10.62993 182.55133120000002, 0 228.189164, 0 228.189164, 54.921305 217.559234, 54.921305 217.559234, 109.84261 228.189164, 109.84261 228.189164, 152.36233 217.559234, 152.36233 217.559234, 207.283635 228.189164, 207.283635 228.18916400000003, 262.20494 182.55133120000002, 262.20494 182.55133120000002, 251.57501000000002 136.9134984, 251.57501000000002 136.9134984, 262.20494 91.27566560000001, 262.20494 91.27566560000001, 251.57501000000002 45.637832800000005, 251.57501000000002 45.637832800000005, 262.20494 0, 262.20493999999997 0, 207.283635 10.62993, 207.283635 10.62993, 152.36233 0, 152.36233 0, 109.84261 10.62993, 109.84261 10.62993, 54.921305 0, 54.921305 "/> 
 <rect x="24.80317" y="158.03162600000002" width="71.929193" height="29.763804" rx="0" ry="0" style="stroke:#ff0000;stroke-width:0.090000074;fill:none" /> 
 <circle cx="60.76776649999999" cy="80.6811687" r="12.401585" style="stroke:#ff0000;stroke-width:0.090000074;fill:none" /> 
 <circle cx="60.76776649999999" cy="80.6811687" r="12.401585" style="stroke:#ff0000;stroke-width:0.090000074;fill:none" /> 
</g>
<!-- Back--> 
<g transform="translate(250.6891825, 22.5000185) " > 
<polygon style="stroke:#ff0000; fill:none; stroke-width:0.090000074" points="0, 0 45.637832800000005, 0 45.637832800000005, 10.62993 91.27566560000001, 10.62993 91.27566560000001, 0 136.9134984, 0 136.9134984, 10.62993 182.55133120000002, 10.62993 182.55133120000002, 0 228.189164, 0 228.189164, 54.921305 217.559234, 54.921305 217.559234, 109.84261 228.189164, 109.84261 228.189164, 152.36233 217.559234, 152.36233 217.559234, 207.283635 228.189164, 207.283635 228.18916400000003, 262.20494 182.55133120000002, 262.20494 182.55133120000002, 251.57501000000002 136.9134984, 251.57501000000002 136.9134984, 262.20494 91.27566560000001, 262.20494 91.27566560000001, 251.57501000000002 45.637832800000005, 251.57501000000002 45.637832800000005, 262.20494 0, 262.20493999999997 0, 207.283635 10.62993, 207.283635 10.62993, 152.36233 0, 152.36233 0, 109.84261 10.62993, 109.84261 10.62993, 54.921305 0, 54.921305 "/> 
</g>
<!-- Left--> 
<g transform="translate(478.8783465, 22.5000185) " > 
<polygon style="stroke:#ff0000; fill:none; stroke-width:0.090000074" points="10.62993, 0 61.38784575, 0 61.38784575, 10.62993 122.7756915, 10.62993 122.7756915, 0 165.2954115, 0 165.2954115, 10.62993 226.68325725, 10.62993 226.68325725, 0 277.441173, 0 277.441173, 54.921305 288.071103, 54.921305 288.071103, 109.84261 277.441173, 109.84261 277.441173, 152.36233 288.071103, 152.36233 288.071103, 207.283635 277.441173, 207.283635 277.441173, 262.20494 226.68325725, 262.20494 226.68325725, 251.57501000000002 165.2954115, 251.57501000000002 165.2954115, 262.20494 122.7756915, 262.20494 122.7756915, 251.57501000000002 61.38784575, 251.57501000000002 61.38784575, 262.20494 10.62993, 262.20493999999997 10.62993, 207.283635 0, 207.283635 0, 152.36233 10.62993, 152.36233 10.62993, 109.84261 0, 109.84261 0, 54.921305 10.62993, 54.921305 "/> 
 <circle cx="53.14965" cy="88.58275" r="14.17324" style="stroke:#ff0000;stroke-width:0.090000074;fill:none" /> 
 <circle cx="106.2993" cy="88.58275" r="14.17324" style="stroke:#ff0000;stroke-width:0.090000074;fill:none" /> 
 <circle cx="159.44895" cy="88.58275" r="14.17324" style="stroke:#ff0000;stroke-width:0.090000074;fill:none" /> 
 <circle cx="212.5986" cy="88.58275" r="14.17324" style="stroke:#ff0000;stroke-width:0.090000074;fill:none" /> 
</g>
<!-- Right--> 
<g transform="translate(478.8783465, 284.7049585) " > 
<polygon style="stroke:#ff0000; fill:none; stroke-width:0.090000074" points="10.62993, 0 61.38784575, 0 61.38784575, 10.62993 122.7756915, 10.62993 122.7756915, 0 165.2954115, 0 165.2954115, 10.62993 226.68325725, 10.62993 226.68325725, 0 277.441173, 0 277.441173, 54.921305 288.071103, 54.921305 288.071103, 109.84261 277.441173, 109.84261 277.441173, 152.36233 288.071103, 152.36233 288.071103, 207.283635 277.441173, 207.283635 277.441173, 262.20494 226.68325725, 262.20494 226.68325725, 251.57501000000002 165.2954115, 251.57501000000002 165.2954115, 262.20494 122.7756915, 262.20494 122.7756915, 251.57501000000002 61.38784575, 251.57501000000002 61.38784575, 262.20494 10.62993, 262.20493999999997 10.62993, 207.283635 0, 207.283635 0, 152.36233 10.62993, 152.36233 10.62993, 109.84261 0, 109.84261 0, 54.921305 10.62993, 54.921305 "/> 
 <circle cx="53.14965" cy="53.14965" r="23.031515" style="stroke:#ff0000;stroke-width:0.090000074;fill:none" /> 
 <circle cx="106.2993" cy="88.58275" r="23.031515" style="stroke:#ff0000;stroke-width:0.090000074;fill:none" /> 
 <circle cx="159.44895" cy="53.14965" r="23.031515" style="stroke:#ff0000;stroke-width:0.090000074;fill:none" /> 
 <circle cx="212.5986" cy="88.58275" r="23.031515" style="stroke:#ff0000;stroke-width:0.090000074;fill:none" /> 
</g>
<!-- Top--> 
<g transform="translate(22.5000185, 284.7049585) " > 
<polygon style="stroke:#ff0000; fill:none; stroke-width:0.090000074" points="10.62993, 10.62993 45.637832800000005, 10.62993 45.637832800000005, 0 91.27566560000001, 0 91.27566560000001, 10.62993 136.9134984, 10.62993 136.9134984, 0 182.55133120000002, 0 182.55133120000002, 10.62993 217.559234, 10.62993 217.559234, 61.38784575 228.189164, 61.38784575 228.189164, 122.7756915 217.559234, 122.7756915 217.559234, 165.2954115 228.189164, 165.2954115 228.189164, 226.68325725 217.559234, 226.68325725 217.55923400000003, 277.441173 182.55133120000002, 277.441173 182.55133120000002, 288.071103 136.9134984, 288.071103 136.9134984, 277.441173 91.27566560000001, 277.441173 91.27566560000001, 288.071103 45.637832800000005, 288.071103 45.637832800000005, 277.441173 10.62993, 277.441173 10.62993, 226.68325725 0, 226.68325725 0, 165.2954115 10.62993, 165.2954115 10.62993, 122.7756915 0, 122.7756915 0, 61.38784575 10.62993, 61.38784575 "/> 
</g>
<!-- Bottom--> 
<g transform="translate(250.6891825, 284.7049585) " > 
<polygon style="stroke:#ff0000; fill:none; stroke-width:0.090000074" points="10.62993, 10.62993 45.637832800000005, 10.62993 45.637832800000005, 0 91.27566560000001, 0 91.27566560000001, 10.62993 136.9134984, 10.62993 136.9134984, 0 182.55133120000002, 0 182.55133120000002, 10.62993 217.559234, 10.62993 217.559234, 61.38784575 228.189164, 61.38784575 228.189164, 122.7756915 217.559234, 122.7756915 217.559234, 165.2954115 228.189164, 165.2954115 228.189164, 226.68325725 217.559234, 226.68325725 217.55923400000003, 277.441173 182.55133120000002, 277.441173 182.55133120000002, 288.071103 136.9134984, 288.071103 136.9134984, 277.441173 91.27566560000001, 277.441173 91.27566560000001, 288.071103 45.637832800000005, 288.071103 45.637832800000005, 277.441173 10.62993, 277.441173 10.62993, 226.68325725 0, 226.68325725 0, 165.2954115 10.62993, 165.2954115 10.62993, 122.7756915 0, 122.7756915 0, 61.38784575 10.62993, 61.38784575 "/> 
</g></svg>