<?xml version="1.0" encoding="utf-8"?>
<!-- Generator: Adobe Illustrator 22.1.0, SVG Export Plug-In . SVG Version: 6.00 Build 0)  -->
<svg version="1.1" id="Layer_1" xmlns="http://www.w3.org/2000/svg" xmlns:xlink="http://www.w3.org/1999/xlink" x="0px" y="0px"
	 viewBox="0 0 855.2 645.4" style="enable-background:new 0 0 855.2 645.4;" xml:space="preserve">
<style type="text/css">
	.st0{fill:none;stroke:#FF0000;stroke-width:7.200000e-02;}
	.st1{opacity:0.97;enable-background:new    ;}
	.st2{font-family:'ArialMT';}
	.st3{font-size:12px;}
	.st4{fill:none;}
</style>
<g transform="translate(22.5000185, 22.5000185) ">
	<polygon class="st0" points="-4.5,-4.5 45.4,-4.5 45.4,4 95.3,4 95.3,-4.5 145.2,-4.5 145.2,4 195.1,4 195.1,-4.5 244.9,-4.5 
		244.9,55.7 236.4,55.7 236.4,116 244.9,116 244.9,164.2 236.4,164.2 236.4,224.4 244.9,224.4 244.9,284.6 195.1,284.6 195.1,276.1 
		145.2,276.1 145.2,284.6 95.3,284.6 95.3,276.1 45.4,276.1 45.4,284.6 -4.5,284.6 -4.5,224.4 4,224.4 4,164.2 -4.5,164.2 -4.5,116 
		4,116 4,55.7 -4.5,55.7 	"/>
</g>
<g transform="translate(334.31129849999996, 22.5000185) ">
	<polygon class="st0" points="-66.9,-4.5 -17,-4.5 -17,4 32.9,4 32.9,-4.5 82.8,-4.5 82.8,4 132.7,4 132.7,-4.5 182.6,-4.5 
		182.6,55.7 174.1,55.7 174.1,116 182.6,116 182.6,164.2 174.1,164.2 174.1,224.4 182.6,224.4 182.6,284.6 132.7,284.6 132.7,276.1 
		82.8,276.1 82.8,284.6 32.9,284.6 32.9,276.1 -17,276.1 -17,284.6 -66.9,284.6 -66.9,224.4 -58.4,224.4 -58.4,164.2 -66.9,164.2 
		-66.9,116 -58.4,116 -58.4,55.7 -66.9,55.7 	"/>
</g>
<g transform="translate(646.1225784999999, 22.5000185) ">
	<polygon class="st0" points="-96.5,-4.5 -46.5,-4.5 -46.5,4 10.6,4 10.6,-4.5 51.2,-4.5 51.2,4 108.4,4 108.4,-4.5 158.4,-4.5 
		158.4,55.7 165.6,55.7 165.6,116 158.4,116 158.4,164.2 165.6,164.2 165.6,224.4 158.4,224.4 158.4,284.6 108.4,284.6 108.4,276.1 
		51.2,276.1 51.2,284.6 10.6,284.6 10.6,276.1 -46.5,276.1 -46.5,284.6 -96.5,284.6 -96.5,224.4 -103.7,224.4 -103.7,164.2 
		-96.5,164.2 -96.5,116 -103.7,116 -103.7,55.7 -96.5,55.7 	"/>
</g>
<g transform="translate(646.1225784999999, 383.91763849999995) ">
	<polygon class="st0" points="-96.5,-76.8 -46.5,-76.8 -46.5,-68.3 10.6,-68.3 10.6,-76.8 51.2,-76.8 51.2,-68.3 108.4,-68.3 
		108.4,-76.8 158.4,-76.8 158.4,-16.5 165.6,-16.5 165.6,43.7 158.4,43.7 158.4,91.9 165.6,91.9 165.6,152.1 158.4,152.1 
		158.4,212.4 108.4,212.4 108.4,203.8 51.2,203.8 51.2,212.4 10.6,212.4 10.6,203.8 -46.5,203.8 -46.5,212.4 -96.5,212.4 
		-96.5,152.1 -103.7,152.1 -103.7,91.9 -96.5,91.9 -96.5,43.7 -103.7,43.7 -103.7,-16.5 -96.5,-16.5 	"/>
</g>
<g transform="translate(22.5000185, 383.91763849999995) ">
	<polygon class="st0" points="4,-44.1 45.4,-44.1 45.4,-51.3 95.3,-51.3 95.3,-44.1 145.2,-44.1 145.2,-51.3 195.1,-51.3 
		195.1,-44.1 236.4,-44.1 236.4,5.9 244.9,5.9 244.9,63.1 236.4,63.1 236.4,103.7 244.9,103.7 244.9,160.8 236.4,160.8 236.4,210.8 
		195.1,210.8 195.1,218 145.2,218 145.2,210.8 95.3,210.8 95.3,218 45.4,218 45.4,210.8 4,210.8 4,160.8 -4.5,160.8 -4.5,103.7 
		4,103.7 4,63.1 -4.5,63.1 -4.5,5.9 4,5.9 	"/>
</g>
<g transform="translate(334.31129849999996, 383.91763849999995) ">
	<polygon class="st0" points="-58.4,-44.1 -17,-44.1 -17,-51.3 32.9,-51.3 32.9,-44.1 82.8,-44.1 82.8,-51.3 132.7,-51.3 
		132.7,-44.1 174.1,-44.1 174.1,5.9 182.6,5.9 182.6,63.1 174.1,63.1 174.1,103.7 182.6,103.7 182.6,160.8 174.1,160.8 174.1,210.8 
		132.7,210.8 132.7,218 82.8,218 82.8,210.8 32.9,210.8 32.9,218 -17,218 -17,210.8 -58.4,210.8 -58.4,160.8 -66.9,160.8 
		-66.9,103.7 -58.4,103.7 -58.4,63.1 -66.9,63.1 -66.9,5.9 -58.4,5.9 	"/>
</g>
<rect x="53" y="248.9" class="st0" width="42.5" height="42.5"/>
<rect x="36.6" y="185.7" class="st0" width="57.5" height="25.5"/>
<circle class="st0" cx="142.7" cy="117.7" r="9.9"/>
<circle class="st0" cx="117.2" cy="58" r="7.1"/>
<circle class="st0" cx="166.6" cy="58" r="7.1"/>
<circle class="st0" cx="588.9" cy="117.7" r="11.3"/>
<circle class="st0" cx="645.6" cy="117.7" r="11.3"/>
<circle class="st0" cx="703.4" cy="117.7" r="11.3"/>
<circle class="st0" cx="763.2" cy="117.7" r="11.3"/>
<circle class="st0" cx="588.9" cy="350.2" r="18.4"/>
<circle class="st0" cx="645.6" cy="350.2" r="18.4"/>
<circle class="st0" cx="703.4" cy="350.2" r="18.4"/>
<circle class="st0" cx="763.2" cy="350.2" r="18.4"/>
<text transform="matrix(1 0 0 1 685.8333 384.0496)" class="st1 st2 st3">Digital</text>
<text transform="matrix(1 0 0 1 684.3333 423.4354)" class="st2 st3">Analog</text>
<image style="overflow:visible;enable-background:new    ;" width="959" height="959" xlink:href="64B4C11.jpg"  transform="matrix(5.911670e-02 0 0 5.911670e-02 706.5071 141.7578)">
</image>
<image style="overflow:visible;enable-background:new    ;" width="431" height="382" xlink:href="64B4C13.jpg"  transform="matrix(9.868677e-02 0 0 9.723550e-02 682.9044 382.9901)">
</image>
<image style="overflow:visible;enable-background:new    ;" width="155" height="155" xlink:href="64B4C16.jpg"  transform="matrix(0.2744 0 0 0.2744 567.6406 380.3018)">
</image>
<image style="overflow:visible;enable-background:new    ;" width="1637" height="1637" xlink:href="64B4C12.jpg"  transform="matrix(3.463220e-02 0 0 3.463220e-02 588.9033 141.7578)">
</image>
<image style="overflow:visible;enable-background:new    ;" width="1631" height="1678" xlink:href="64B4C1D.jpg"  transform="matrix(2.046587e-02 0 0 2.046587e-02 628.9092 382.3923)">
</image>
<image style="overflow:visible;enable-background:new    ;" width="1637" height="1693" xlink:href="64B4C1E.jpg"  transform="matrix(1.674333e-02 0 0 1.674333e-02 152.8962 72.2778)">
</image>
<image style="overflow:visible;enable-background:new    ;" width="258" height="258" xlink:href="64B4C1F.jpg"  transform="matrix(0.3876 0 0 0.3876 131.4539 175.1981)">
</image>
<image style="overflow:visible;enable-background:new    ;" width="257" height="257" xlink:href="64B4C14.jpg"  transform="matrix(0.7783 0 0 0.7783 292.1613 70.1036)">
</image>
<image style="overflow:visible;enable-background:new    ;" width="258" height="258" xlink:href="E8E1FE8A.jpg"  transform="matrix(0.3876 0 0 0.3876 624.6737 191.3981)">
</image>
<image style="overflow:visible;enable-background:new    ;" width="257" height="257" xlink:href="E8E1FE8D.jpg"  transform="matrix(0.7783 0 0 0.7783 42.7011 367.268)">
</image>
<image style="overflow:visible;enable-background:new    ;" width="258" height="258" xlink:href="E8E1FE8F.jpg"  transform="matrix(0.3876 0 0 0.3876 627.0718 467.2658)">
</image>
<image style="overflow:visible;enable-background:new    ;" width="1667" height="1786" xlink:href="E8E1FE93.jpg"  transform="matrix(1.592035e-02 0 0 1.587148e-02 103.9316 72.2778)">
</image>
<rect x="741.9" y="385" class="st4" width="3.1" height="1"/>
<image style="overflow:visible;" width="530" height="530" xlink:href="E8E1FE92.jpg"  transform="matrix(8.022582e-02 0 0 8.022582e-02 741.9402 378.3033)">
</image>
</svg>
